<?xml version="1.0" standalone="no"?>
<!DOCTYPE svg PUBLIC "-//W3C//DTD SVG 20010904//EN"
 "http://www.w3.org/TR/2001/REC-SVG-20010904/DTD/svg10.dtd">
<svg version="1.0" xmlns="http://www.w3.org/2000/svg"
 width="360.000000pt" height="360.000000pt" viewBox="0 0 360.000000 360.000000"
 preserveAspectRatio="xMidYMid meet">
<metadata>
Created by potrace 1.14, written by Peter Selinger 2001-2017
</metadata>
<g transform="translate(0.000000,360.000000) scale(0.100000,-0.100000)"
fill="#000000" stroke="none">
<path d="M2223 2757 c-85 -86 -91 -73 185 -349 192 -192 243 -238 264 -238 39
0 138 98 138 137 0 24 -39 67 -238 266 -276 275 -263 269 -349 184z"/>
<path d="M2550 2715 l-24 -26 82 -81 81 -82 26 24 c41 39 34 74 -28 137 -63
62 -98 69 -137 28z"/>
<path d="M1894 2678 c-59 -61 -68 -81 -52 -111 14 -27 683 -697 719 -721 35
-22 62 -11 122 52 33 36 47 60 47 79 0 23 -60 88 -363 390 -416 417 -388 399
-473 311z"/>
<path d="M1717 1882 l-367 -367 83 -83 82 -82 368 368 367 367 -83 83 -82 82
-368 -368z"/>
<path d="M990 1763 c-8 -3 -39 -28 -67 -56 -89 -86 -107 -58 310 -474 416
-417 388 -399 473 -310 55 56 64 73 55 99 -10 28 -731 749 -747 747 -5 0 -16
-3 -24 -6z"/>
<path d="M843 1376 c-84 -84 -89 -74 186 -351 274 -274 262 -268 347 -180 39
39 54 63 54 82 0 23 -44 71 -238 265 -276 277 -263 270 -349 184z"/>
<path d="M882 1047 c-37 -39 -29 -73 31 -134 63 -62 98 -69 137 -28 l24 26
-79 79 c-44 44 -82 80 -86 80 -3 0 -15 -10 -27 -23z"/>
</g>
</svg>
